<svg width="350" height="150" viewBox="0 0 350 150" fill="none" xmlns="http://www.w3.org/2000/svg">
<g clip-path="url(#clip0_1549_4038)">
<rect width="350" height="150" rx="10" fill="#221C3D"/>
<path d="M194.28 72.0352C186.83 86.4352 188.016 104.426 195.523 118.782C203.03 133.139 216.273 143.992 231.067 150.602C245.861 157.211 262.171 159.837 278.357 160.518C287.957 160.917 297.605 160.653 307.085 159.112C317.937 157.341 328.781 153.75 337.243 146.728C343.142 141.832 347.649 135.477 351.605 128.915C360.446 114.242 366.835 98.2432 373.205 82.3264C376.334 74.4832 379.483 66.5872 381.259 58.3264C384.619 42.6208 382.776 25.6864 375.23 11.5024C367.685 -2.68159 354.288 -13.8512 338.76 -17.9024C328.473 -20.5808 317.539 -20.168 307.181 -17.7728C300.136 -16.1451 293.327 -13.6255 286.92 -10.2752C271.305 -2.11519 259.008 10.9312 245.592 21.9856C239.697 26.848 235.123 33.2848 229.118 38.2048C223.041 43.192 216.605 47.7328 210.619 52.8304C204.173 58.3072 198.173 64.48 194.28 72.0352Z" fill="#8162FF"/>
<path opacity="0.5" d="M194.28 72.0352C186.83 86.4352 188.016 104.426 195.523 118.782C203.03 133.139 216.273 143.992 231.067 150.602C245.861 157.211 262.171 159.837 278.357 160.518C287.957 160.917 297.605 160.653 307.085 159.112C317.937 157.341 328.781 153.75 337.243 146.728C343.142 141.832 347.649 135.477 351.605 128.915C360.446 114.242 366.835 98.2432 373.205 82.3264C376.334 74.4832 379.483 66.5872 381.259 58.3264C384.619 42.6208 382.776 25.6864 375.23 11.5024C367.685 -2.68159 354.288 -13.8512 338.76 -17.9024C328.473 -20.5808 317.539 -20.168 307.181 -17.7728C300.136 -16.1451 293.327 -13.6255 286.92 -10.2752C271.305 -2.11519 259.008 10.9312 245.592 21.9856C239.697 26.848 235.123 33.2848 229.118 38.2048C223.041 43.192 216.605 47.7328 210.619 52.8304C204.173 58.3072 198.173 64.48 194.28 72.0352Z" fill="white"/>
<path d="M334.32 43.5137H381.461" stroke="#141518" stroke-width="0.48" stroke-linecap="round" stroke-linejoin="round"/>
<path d="M295.584 -22.9231V15.2753" stroke="#141518" stroke-width="0.48" stroke-linecap="round" stroke-linejoin="round"/>
<path d="M228.37 43.5137H200.054" stroke="#141518" stroke-width="0.48" stroke-linecap="round" stroke-linejoin="round"/>
<path d="M335.822 23.5552L353.914 5.46399" stroke="#141518" stroke-width="0.48" stroke-linecap="round" stroke-linejoin="round"/>
<path d="M346.517 5.91531L355.56 -3.13269" stroke="#141518" stroke-width="0.48" stroke-linecap="round" stroke-linejoin="round"/>
<path d="M187.166 106.187L205.257 88.0913" stroke="#141518" stroke-width="0.48" stroke-linecap="round" stroke-linejoin="round"/>
<path d="M197.856 88.5425L206.904 79.4945" stroke="#141518" stroke-width="0.48" stroke-linecap="round" stroke-linejoin="round"/>
<path d="M337.469 14.9585L343.229 9.19849" stroke="#141518" stroke-width="0.48" stroke-linecap="round" stroke-linejoin="round"/>
<path d="M311.021 -3.14233L312.168 0.563263C312.234 0.8006 312.35 1.02109 312.508 1.20987C312.666 1.39866 312.863 1.55135 313.085 1.65767L316.2 3.04006L313.104 4.40806C312.882 4.51489 312.686 4.66775 312.528 4.85646C312.37 5.04516 312.254 5.26539 312.187 5.50246L311.04 9.20806L309.893 5.50246C309.827 5.2657 309.712 5.04563 309.555 4.85691C309.398 4.66819 309.202 4.51518 308.981 4.40806L305.861 3.04006L308.962 1.66726C309.183 1.56093 309.38 1.40816 309.537 1.21933C309.694 1.0305 309.809 0.810021 309.874 0.572865L311.021 -3.14233Z" fill="white"/>
<path d="M325.718 13.0144L326.827 16.4944C326.893 16.7187 327.005 16.9265 327.158 17.1037C327.31 17.2808 327.498 17.4233 327.71 17.5216L330.71 18.808L327.72 20.0992C327.508 20.1969 327.319 20.3393 327.166 20.5165C327.014 20.6938 326.902 20.9018 326.837 21.1264L325.728 24.6064L324.619 21.1264C324.554 20.9015 324.44 20.6933 324.287 20.5161C324.134 20.3388 323.944 20.1966 323.731 20.0992L320.736 18.808L323.731 17.5216C323.944 17.4234 324.133 17.2809 324.286 17.1038C324.439 16.9267 324.553 16.7189 324.619 16.4944L325.718 13.0144Z" fill="white"/>
<path opacity="0.7" d="M332.477 -1.80798L332.842 -0.660784C332.864 -0.586624 332.901 -0.51796 332.952 -0.459247C333.002 -0.400534 333.065 -0.353085 333.135 -0.319984L334.123 0.102415L333.135 0.529614C333.065 0.562715 333.002 0.610164 332.952 0.668877C332.901 0.72759 332.864 0.796257 332.842 0.870418L332.477 2.01762L332.112 0.870418C332.091 0.795854 332.054 0.726788 332.003 0.667962C331.953 0.609135 331.89 0.561938 331.819 0.529614L330.831 0.102415L331.819 -0.319984C331.89 -0.352308 331.953 -0.399501 332.003 -0.458328C332.054 -0.517154 332.091 -0.58622 332.112 -0.660784L332.477 -1.80798Z" fill="white"/>
<path d="M337.469 89.9777L338.578 93.4577C338.643 93.6826 338.757 93.8908 338.91 94.068C339.063 94.2453 339.253 94.3874 339.466 94.4849L342.461 95.7761L339.466 97.0625C339.253 97.1607 339.064 97.3031 338.911 97.4803C338.758 97.6574 338.644 97.8651 338.578 98.0897L337.469 101.57L336.36 98.0801C336.294 97.8561 336.181 97.6488 336.029 97.4717C335.876 97.2946 335.688 97.1519 335.477 97.0529L332.477 95.7665L335.477 94.4753C335.689 94.3767 335.877 94.2342 336.029 94.057C336.182 93.8799 336.294 93.6723 336.36 93.4481L337.469 89.9777Z" fill="white"/>
<path d="M283.08 2.0177L283.915 4.9265C283.961 5.10819 284.044 5.27842 284.158 5.42634C284.273 5.57427 284.418 5.69666 284.582 5.7857L286.834 6.8657L284.582 7.9409C284.418 8.02994 284.273 8.15233 284.158 8.30025C284.044 8.44818 283.961 8.61841 283.915 8.8001L283.08 11.7089L282.25 8.8001C282.204 8.61841 282.121 8.44818 282.007 8.30025C281.892 8.15233 281.747 8.02994 281.582 7.9409L279.331 6.8801L281.582 5.8001C281.747 5.71106 281.892 5.58867 282.007 5.44074C282.121 5.29282 282.204 5.12259 282.25 4.9409L283.08 2.0177Z" fill="white"/>
<path d="M251.635 100.48C251.635 100.48 243.345 90.3086 242.76 86.939L236.366 90.299L213.062 90.1166C211.889 88.1306 210.817 86.0864 209.851 83.9918C208.929 81.7598 208.55 77.8814 213.777 76.8302C213.777 76.8302 216.854 71.3294 217.963 66.923C219.072 62.5166 217.368 57.6062 219.005 54.3374C220.641 51.0686 221.328 50.1998 224.078 48.5774C226.829 46.955 232.824 42.8174 235.536 41.1086C238.346 39.3164 241.389 37.9193 244.579 36.9566C247.555 36.1262 270.61 23.5166 270.61 23.5166L271.646 25.2302L271.469 23.5166L274.785 25.7726C274.785 25.7726 277.248 26.1998 281.904 24.5486C286.56 22.8974 295.915 17.5598 302.179 20.411C308.443 23.2622 317.841 33.203 320.693 36.1598C323.544 39.1166 329.582 45.1886 331.08 49.667C332.578 54.1454 335.726 56.8238 337.32 58.5902C338.913 60.3566 346.521 66.3806 341.371 74.0654C336.221 81.7502 316.987 75.8318 316.987 75.8318C316.987 75.8318 317.861 71.2862 319.694 68.3294C318.777 66.3194 317.612 64.4314 316.229 62.7086C313.91 59.8286 305.899 50.7662 301.301 48.6062C296.702 46.4462 278.419 89.1326 278.419 89.1326L274.694 87.7646L274.061 93.5247C274.061 93.5247 255.01 98.1086 251.635 100.48Z" fill="#8162FF"/>
<path opacity="0.2" d="M297.062 31.1296C302.683 30.448 308.347 33.0496 312.422 36.9616C316.498 40.8736 319.176 46.048 321.298 51.2992C322.81 55.0518 324.074 58.9002 325.08 62.8192C328.781 61.7872 333.216 61.4992 336.936 62.44C334.373 63.1552 331.752 63.3424 328.819 64.504C331.656 64.528 334.541 64.9408 337.075 66.2176C339.61 67.4944 341.75 69.7312 342.442 72.4816C342.504 72.7456 342.413 73.1584 342.154 73.0768L338.477 78.2464L316.992 77.3872C316.992 77.3872 316.349 73.5472 319.699 68.392C318.094 65.0848 315.998 62.0392 313.483 59.3584C309.115 54.5824 302.174 49.4608 302.174 49.4608L297.062 31.1296Z" fill="black"/>
<path opacity="0.2" d="M211.118 86.9391C211.118 86.9391 207.278 79.6479 216.576 77.3871C216.576 77.3871 219.283 75.1743 220.128 72.1071C220.973 69.0399 221.088 52.1823 233.568 49.9503C246.048 47.7183 252.034 45.0591 255.077 36.7503C258.12 28.4415 275.933 35.1999 275.933 35.1999L283.757 75.5583L274.061 93.5487L251.635 100.48C251.635 100.48 242.995 89.3967 240.777 82.3551C238.56 75.3135 222.331 87.4671 222.331 87.4671L214.209 90.9471L211.118 86.9391Z" fill="black"/>
<path d="M310.286 91.36L304.459 91.096L302.76 87.1264L301.968 87.928L300.619 82.4128C300.619 82.4128 308.39 80.3872 314.006 76.3648C320.702 72.5248 332.573 67.1392 340.781 71.9248C340.781 71.9248 340.555 75.256 340.301 77.3296C340.046 79.4032 339.365 82.6096 333.408 85.8064L312.931 90.2752" fill="white"/>
<path d="M260.616 9.99518L252.864 3.80798L244.123 11.632L233.563 17.6368L236.218 29.7424C236.218 29.7424 242.006 36.8848 244.579 39.7072C247.152 42.5296 246.806 42.712 250.018 44.0272C253.229 45.3424 260.837 45.856 260.837 45.856C262.18 45.4019 263.468 44.7981 264.677 44.056C266.674 42.832 267.24 38.9104 267.24 38.9104L270.24 36.2224L270.653 31.3984C271.481 29.2478 271.791 26.9328 271.56 24.64L267.168 18.712C267.168 18.712 268.608 18.8224 269.045 17.632C269.482 16.4416 269.774 13.504 269.774 13.504C269.774 13.504 269.822 12.064 267.701 9.14559C265.579 6.22718 265.397 5.19038 262.666 5.90558C259.934 6.62078 260.616 9.99518 260.616 9.99518Z" fill="white"/>
<path d="M274.061 84.904C273.494 83.7856 267.557 76.024 265.421 74.2288C265.421 74.2288 253.762 69.352 251.189 70.0576L243.658 72.3424C243.658 72.3424 234.758 74.968 232.618 76.0864C230.477 77.2048 226.915 78.0736 222.888 79.0192C218.861 79.9648 214.032 80.5792 213.322 83.9296C212.611 87.28 212.131 92.656 213.173 96.0976C213.173 96.0976 213.13 99.5296 213.72 100.461C214.31 101.392 219 101.848 223.214 99.7648C227.429 97.6816 232.718 94.2928 236.362 90.3232L246.067 85.8784L252.23 90.928L255.739 91.6384L258.859 89.536L261 90.928H262.853L263.362 88.288L258.859 82.5904L268.133 88.288L269.99 86.9392L269.39 83.4832L272.75 86.9392C272.75 86.9392 274.627 86.0272 274.061 84.904ZM262.747 78.5008L265.19 79.1968L267.643 82.2256L262.747 78.5008Z" fill="white"/>
<path d="M257.669 28.4319C258.269 29.1999 258.446 30.0735 258.058 30.3519C257.669 30.6303 256.872 30.2751 256.267 29.5023C255.662 28.7295 255.49 27.8607 255.878 27.5823C256.267 27.3039 257.064 27.6591 257.669 28.4319Z" fill="#141518"/>
<path d="M247.603 34.1247C248.203 34.8975 248.381 35.7663 247.992 36.0687C247.603 36.3711 246.806 35.9871 246.202 35.2143C245.597 34.4415 245.424 33.5727 245.813 33.2703C246.202 32.9679 246.998 33.3519 247.603 34.1247Z" fill="#141518"/>
<path d="M260.616 37.9791C260.616 37.9791 263.016 36.3855 262.056 32.4111" stroke="#141518" stroke-width="0.48" stroke-linecap="round" stroke-linejoin="round"/>
<path d="M252.504 26.1232C252.997 25.1906 253.737 24.4114 254.642 23.8705C255.548 23.3296 256.585 23.0479 257.64 23.056" stroke="#141518" stroke-width="0.96" stroke-linecap="round" stroke-linejoin="round"/>
<path d="M246.394 30.3184C245.538 30.6449 244.766 31.1595 244.135 31.8241C243.505 32.4887 243.032 33.2864 242.75 34.1584" stroke="#141518" stroke-width="0.96" stroke-linecap="round" stroke-linejoin="round"/>
<path d="M248.52 31.8832C250.811 33.4367 252.56 35.6669 253.522 38.2624C254.645 38.6176 255.82 38.7799 256.997 38.7424L257.256 35.7424" stroke="#141518" stroke-width="0.48" stroke-linecap="round" stroke-linejoin="round"/>
<path d="M231.446 18.808C231.446 18.808 231.446 23.608 233.904 26.7472C236.179 29.6752 240.873 35.0416 241.555 35.824C241.61 35.8846 241.662 35.9488 241.709 36.016C242.256 36.7696 245.813 41.5984 247.824 43.1056C249.624 44.4544 257.697 45.5056 260.491 45.8176C261.106 45.8879 261.727 45.7583 262.262 45.448L264.662 44.0368C265.239 43.7007 265.679 43.1722 265.905 42.544L268.401 35.68C268.515 35.3726 268.574 35.0476 268.574 34.72V30.5488C268.575 30.2025 268.511 29.8591 268.387 29.536L265.387 21.6544" stroke="#141518" stroke-width="0.48" stroke-linecap="round" stroke-linejoin="round"/>
<path d="M267.24 18.808C267.24 18.808 268.157 20.9584 271.56 24.6496" stroke="#141518" stroke-width="0.48" stroke-linecap="round" stroke-linejoin="round"/>
<path d="M301.733 82.1343C301.733 82.1343 308.194 79.8879 312.739 77.0799C317.285 74.2719 332.126 67.0575 341.059 71.7327L340.901 72.5823C340.634 74.0869 340.519 75.6147 340.56 77.1423C340.613 79.8735 339.379 82.2255 333.662 85.6191C326.52 86.5119 310.579 91.1919 310.579 91.1919" stroke="#141518" stroke-width="0.48" stroke-linecap="round" stroke-linejoin="round"/>
<path d="M246.23 86.2288C244.085 86.6224 240.854 89.2192 239.803 91.1344C238.752 93.0496 238.133 95.176 237.077 97.0864C235.804 99.3723 233.943 101.276 231.686 102.602C228.749 104.32 225.178 105.035 222.725 107.402C221.48 108.658 220.541 110.184 219.979 111.861C218.528 115.869 218.653 120.279 220.328 124.199C222.003 128.12 225.104 131.258 229.003 132.981" stroke="#141518" stroke-width="0.96" stroke-linecap="round" stroke-linejoin="round"/>
<path d="M247.589 71.3679C247.589 71.3679 235.934 73.9839 231.446 76.7151C226.958 79.4463 214.809 78.4911 213.168 84.3567C211.526 90.2223 213.168 96.0975 213.168 96.0975C213.168 96.0975 212.76 99.5199 213.715 100.48C214.67 101.44 224.501 102.942 235.829 90.6591C235.829 90.6591 242.52 86.5935 245.933 86.3055" stroke="#141518" stroke-width="0.48" stroke-linecap="round" stroke-linejoin="round"/>
<path d="M245.933 72.7503C245.933 72.7503 249.057 69.3471 252.465 70.1967C255.873 71.0463 263.822 73.0767 265.425 74.2287C267.029 75.3807 273.859 83.5407 274.065 84.9039C274.272 86.2671 272.765 86.9391 272.765 86.9391L265.19 79.1967L260.621 77.7567" stroke="#141518" stroke-width="0.48" stroke-linecap="round" stroke-linejoin="round"/>
<path d="M262.114 78.2223L269.386 83.5023L269.986 86.9535L268.128 88.3023C268.128 88.3023 260.582 83.2719 257.741 82.0623" stroke="#141518" stroke-width="0.48" stroke-linecap="round" stroke-linejoin="round"/>
<path d="M258.125 82.2256L263.357 88.288L262.848 90.928H260.995L252.226 85.2256" stroke="#141518" stroke-width="0.48" stroke-linecap="round" stroke-linejoin="round"/>
<path d="M239.4 83.2527C239.942 84.7983 242.712 85.0191 244.939 85.4271C247.166 85.8351 252.235 90.9279 252.235 90.9279L255.749 91.6383L258.864 89.5359" stroke="#141518" stroke-width="0.48" stroke-linecap="round" stroke-linejoin="round"/>
<path d="M244.57 72.1023C244.57 72.1023 242.045 60.8943 236.986 54.6975" stroke="#141518" stroke-width="0.48" stroke-linecap="round" stroke-linejoin="round"/>
<path d="M245.933 71.4831C245.933 71.4831 248.496 65.8335 244.57 57.8127" stroke="#141518" stroke-width="0.48" stroke-linecap="round" stroke-linejoin="round"/>
<path d="M242.76 37.408C237.518 38.752 230.76 45.1744 223.08 49.1488C217.401 52.0816 218.577 59.2528 218.28 64.648C217.982 70.0432 213.773 76.8544 213.773 76.8544C213.773 76.8544 209.971 77.6992 209.409 80.752C208.848 83.8048 212.457 89.2432 212.457 89.2432" stroke="#141518" stroke-width="0.48" stroke-linecap="round" stroke-linejoin="round"/>
<path d="M242.76 87.4479C242.76 87.4479 247.728 97.7295 251.645 100.053" stroke="#141518" stroke-width="0.48" stroke-linecap="round" stroke-linejoin="round"/>
<path d="M230.016 77.3872C230.016 77.3872 224.222 74.752 218.976 75.8032" stroke="#141518" stroke-width="0.48" stroke-linecap="round" stroke-linejoin="round"/>
<path d="M231.446 76.7152C229.891 74.9488 224.52 73.6 224.52 73.6" stroke="#141518" stroke-width="0.48" stroke-linecap="round" stroke-linejoin="round"/>
<path d="M315.845 31.7439C315.845 31.7439 328.325 42.1215 331.685 51.1935C334.32 58.3263 348.85 64.9935 340.829 74.7999" stroke="#141518" stroke-width="0.48" stroke-linecap="round" stroke-linejoin="round"/>
<path d="M316.987 74.7999C317.282 72.7792 317.995 70.842 319.08 69.1119C320.952 65.9295 330.562 65.2719 335.837 66.9471" stroke="#141518" stroke-width="0.48" stroke-linecap="round" stroke-linejoin="round"/>
<path d="M266.453 50.3152C266.453 50.581 266.374 50.8409 266.226 51.0619C266.079 51.2829 265.869 51.4552 265.623 51.5569C265.378 51.6586 265.107 51.6852 264.847 51.6334C264.586 51.5815 264.346 51.4535 264.158 51.2655C263.97 51.0776 263.842 50.8381 263.791 50.5774C263.739 50.3167 263.765 50.0464 263.867 49.8009C263.969 49.5553 264.141 49.3454 264.362 49.1977C264.583 49.05 264.843 48.9712 265.109 48.9712C265.465 48.9712 265.807 49.1128 266.059 49.3648C266.311 49.6169 266.453 49.9587 266.453 50.3152Z" fill="#141518"/>
<path d="M267.797 58.6C267.797 58.8658 267.718 59.1257 267.57 59.3467C267.423 59.5677 267.213 59.74 266.967 59.8417C266.722 59.9434 266.451 59.97 266.191 59.9182C265.93 59.8663 265.69 59.7383 265.503 59.5503C265.315 59.3624 265.187 59.1229 265.135 58.8622C265.083 58.6015 265.109 58.3312 265.211 58.0857C265.313 57.8401 265.485 57.6302 265.706 57.4825C265.927 57.3348 266.187 57.256 266.453 57.256C266.809 57.256 267.151 57.3976 267.403 57.6496C267.655 57.9017 267.797 58.2435 267.797 58.6Z" fill="#141518"/>
<path d="M261.067 14.8384L260.827 8.99195C260.804 8.49448 260.928 8.0012 261.184 7.57415C261.44 7.14711 261.817 6.80538 262.267 6.59195L263.227 6.14555C263.788 5.88266 264.425 5.83522 265.018 6.01227C265.611 6.18932 266.119 6.57849 266.443 7.10555L269.405 11.9343C269.69 12.4035 269.816 12.9524 269.765 13.4991L269.472 16.4415C269.413 17.0305 269.149 17.58 268.726 17.9941C268.303 18.4082 267.748 18.6606 267.158 18.7071L266.069 18.7936" stroke="#141518" stroke-width="0.48" stroke-linecap="round" stroke-linejoin="round"/>
<path d="M270.653 30.3184C272.165 27.8128 271.459 23.5552 271.459 23.5552L275.232 26.1232C275.232 26.1232 275.611 27.2848 275.232 29.8192" stroke="#141518" stroke-width="0.48" stroke-linecap="round" stroke-linejoin="round"/>
<path d="M275.534 26.08C279.473 25.4348 283.32 24.3246 286.997 22.7728C292.632 20.3728 296.923 17.7232 302.957 20.8528C306.216 22.5376 309.019 24.976 312.154 26.8576" stroke="#141518" stroke-width="0.48" stroke-linecap="round" stroke-linejoin="round"/>
<path d="M245.664 21.9327C245.664 21.9327 233.885 21.0975 229.858 17.2143C225.83 13.3311 226.046 1.97435 226.046 1.97435C226.356 3.31114 226.749 4.6273 227.222 5.91515C227.328 6.19355 227.443 6.46715 227.558 6.72155C228.422 8.58875 228.422 1.97435 228.422 1.97435L229.142 4.56155C229.142 4.56155 233.462 -3.05605 236.472 -5.07205C239.482 -7.08805 252.288 -6.65125 258.475 -4.20805L264.514 5.91995C264.514 5.91995 261.586 5.91995 261.048 7.86875C260.875 10.1727 261.048 13.7775 261.048 13.7775C257.657 12.4174 254.796 10.0002 252.888 6.88475C252.888 6.88475 250.195 16.4799 245.664 21.9327Z" fill="#141518"/>
<path d="M233.683 18.808C233.683 18.808 238.003 25.2688 236.823 30.328C236.823 30.328 233.554 25.576 232.647 24.568C231.048 22.8016 230.074 15.28 230.074 15.28L233.683 18.808Z" fill="#141518"/>
<path d="M321.053 67.1968C322.555 65.6608 324.6 64.7968 326.587 63.9904C328.33 63.2752 330.11 62.5504 331.992 62.416" stroke="#141518" stroke-width="0.48" stroke-linecap="round" stroke-linejoin="round"/>
<path d="M267.24 76.1008L275.136 77.32L275.856 88.5712L269.093 87.8176L269.986 86.9392L269.462 83.92L272.76 86.9392C273.15 86.762 273.481 86.4755 273.712 86.1143C273.943 85.7531 274.064 85.3327 274.061 84.904C274.152 83.3008 267.24 76.1008 267.24 76.1008Z" fill="#141518"/>
<path d="M267.643 82.2255L265.186 79.1967L262.747 78.5007L267.643 82.2255Z" fill="#141518"/>
<path d="M266.525 87.4479L261.581 86.2287L258.854 82.5903L266.525 87.4479Z" fill="#141518"/>
<path d="M268.752 65.9824C268.667 67.3306 269.101 68.6601 269.966 69.6976C270.822 70.5344 271.9 71.1076 273.072 71.3488C273.329 71.4474 273.603 71.4939 273.878 71.4857C274.154 71.4774 274.424 71.4146 274.675 71.3008C275.213 70.9744 275.371 70.2784 275.482 69.6592C275.962 66.9376 276.37 63.952 275.002 61.5568C274.493 60.6736 273.346 57.1312 272.352 56.9104C269.443 56.272 268.8 64 268.752 65.9824Z" fill="#141518"/>
<path d="M305.53 37.6001L307.622 46.9553C307.989 49.1007 307.788 51.3045 307.042 53.3489L307.483 56.7665L308.386 61.9457C308.386 61.9457 307.07 70.4705 304.296 74.3345C301.522 78.1985 301.214 76.7345 301.214 76.7345L302.27 87.7169C298.62 89.9186 294.464 91.145 290.203 91.2785C283.411 91.3649 275.856 88.5473 275.856 88.5473C275.821 84.7866 275.58 81.0306 275.136 77.2961C274.44 72.4913 273.571 67.3601 273.571 67.3601L270.912 64.0001L268.771 61.1201L267.24 56.1761L268.31 52.9217L268.862 52.3121C269.508 51.9752 270.191 51.7158 270.898 51.5393C271.733 51.3905 275.218 54.6977 275.218 54.6977L275.611 46.1057L276.446 36.9857L293.246 31.7393L301.699 34.3889L305.53 37.6001Z" fill="white"/>
<path d="M306.235 40.2976C306.235 40.2976 307.958 47.8144 307.838 48.7984C307.718 49.7824 307.042 54.3424 307.042 54.3424L308.338 61.4752C308.415 61.899 308.4 62.3344 308.294 62.752C307.733 64.984 305.717 72.4816 303.115 76.4368C300.034 81.1216 284.054 78.8656 280.728 76.4032L277.459 65.8192" stroke="#141518" stroke-width="0.48" stroke-linecap="round" stroke-linejoin="round"/>
<path d="M292.742 66.256C292.742 66.256 295.09 69.616 298.608 69.0496" stroke="#141518" stroke-width="0.48" stroke-linecap="round" stroke-linejoin="round"/>
<path d="M273.571 67.36C273.571 67.36 276.101 80.0512 275.856 88.576C275.856 88.576 282.806 91.2256 289.493 91.312C296.179 91.3984 302.28 87.7408 302.28 87.7408C301.757 84.4096 301.498 77.5168 301.498 77.5168" stroke="#141518" stroke-width="0.48" stroke-linecap="round" stroke-linejoin="round"/>
<path d="M275.635 55.4992C276.062 57.6352 277.075 59.5457 277.483 61.6769C277.561 62.2988 277.768 62.8974 278.093 63.4337C278.659 64.2353 280.57 64.0048 281.486 63.6592C281.554 63.6592 280.762 58.4465 280.742 57.7601C280.651 55.7459 280.956 53.7334 281.64 51.8369C282.293 50.1665 282.922 48.5632 282.749 46.7344C282.562 44.704 281.688 42.7888 280.795 40.9744C283.195 42.4281 285.963 43.1596 288.768 43.0816C293.16 42.8368 290.717 38.5697 290.717 38.5697C290.717 38.5697 303.278 42.2272 310.474 39.1792C317.669 36.1312 318.523 30.1552 316.714 27.3472C314.904 24.5392 303.557 28.2064 304.306 27.6928C305.266 27.0448 306.922 25.2928 306.48 24.016C306.402 23.8125 306.277 23.6298 306.117 23.4824C305.956 23.335 305.763 23.2268 305.554 23.1664C303.768 22.6096 301.037 24.1888 299.472 24.8992C297.384 25.8592 295.33 26.9008 293.107 27.4816C289.08 28.5424 284.89 28.5089 280.766 28.6481C278.818 28.7153 276.883 28.8592 274.949 29.0416C273.274 29.1952 271.406 29.3537 270.091 30.5297C270.049 30.5644 270.011 30.6029 269.976 30.6448C268.2 32.704 271.037 54.4001 271.037 54.4001L275.635 55.4992Z" fill="#141518"/>
<path d="M271.963 35.0896C271.963 35.0896 269.002 33.8368 267.062 35.6608C265.123 37.4848 268.43 54.6976 268.43 54.6976L272.467 54.6448L271.963 35.0896Z" fill="#141518"/>
<path d="M222.422 158.978H356.242L353.194 149.786C353.194 149.786 338.563 109.187 329.64 96.3664L325.2 93.5392L321.413 91.8592L304.464 91.1152L303.062 86.9392C303.062 86.9392 296.232 91.36 289.498 91.3072C282.763 91.2544 274.699 87.8032 274.699 87.8032L274.066 93.5632C274.066 93.5632 257.779 98.0656 254.866 98.7664C251.952 99.4672 237 106.797 237 106.797C237 106.797 236.76 107.963 236.362 110.267C235.963 112.571 229.944 131.574 229.944 131.574L221.16 158.978H222.422Z" fill="#8162FF"/>
<path d="M297.859 52.312C297.984 53.1568 298.133 54 298.306 54.8416C298.507 55.8016 298.786 56.8528 299.563 57.4672C300.202 57.9472 301.094 58.1008 301.651 58.6912C301.932 59.0371 302.11 59.4551 302.164 59.8974C302.219 60.3397 302.147 60.7884 301.958 61.192C301.573 61.9956 301.037 62.7176 300.379 63.3184" stroke="#141518" stroke-width="0.48" stroke-linecap="round" stroke-linejoin="round"/>
<path d="M303.946 54.6976C303.946 55.6576 303.547 56.4688 303.058 56.4688C302.568 56.4688 302.17 55.6768 302.17 54.6976C302.17 53.7184 302.568 52.9216 303.058 52.9216C303.547 52.9216 303.946 53.7184 303.946 54.6976Z" fill="#141518"/>
<path d="M293.16 55.1344C293.16 56.1184 292.762 56.9104 292.272 56.9104C291.782 56.9104 291.384 56.1184 291.384 55.1344C291.384 54.1504 291.782 53.3632 292.272 53.3632C292.762 53.3632 293.16 54.1552 293.16 55.1344Z" fill="#141518"/>
<path d="M293.798 50.1856C293.798 50.1856 290.995 47.9584 287.616 51.1936" stroke="#141518" stroke-width="0.96" stroke-linecap="round" stroke-linejoin="round"/>
<path d="M300.917 49.8064C300.917 49.8064 304.046 48.0592 306.197 50.2624" stroke="#141518" stroke-width="0.96" stroke-linecap="round" stroke-linejoin="round"/>
<path d="M307.042 67.1872C307.042 67.1872 305.467 75.8272 300.917 76.1008C296.366 76.3744 297.331 72.1024 297.331 72.1024L293.798 71.4832C293.798 71.4832 292.882 75.6976 289.805 75.6976C286.728 75.6976 281.842 68.5936 280.829 60.0976L275.232 54.6976C275.232 54.6976 277.464 67.264 278.981 71.4976L280.728 76.3936C280.728 76.3936 287.616 80.752 294.6 82.24C301.637 80.7664 302.328 77.7712 303.106 76.4512C303.883 75.1312 307.042 67.1872 307.042 67.1872Z" fill="#141518"/>
<path d="M272.165 34.3936C272.202 33.8726 272.357 33.3667 272.617 32.9138C272.877 32.4608 273.236 32.0724 273.667 31.7776C274.532 31.1926 275.515 30.8073 276.547 30.6496C280.114 29.968 283.781 30.6208 287.395 31.0192C291.01 31.4176 294.835 31.5328 298.085 29.9056C299.362 29.256 300.499 28.3607 301.43 27.2709C302.36 26.1812 303.067 24.9185 303.509 23.5552" stroke="white" stroke-width="0.48" stroke-linecap="round" stroke-linejoin="round"/>
<path d="M276.864 35.4641C277.391 35.0331 277.995 34.7072 278.645 34.5041C281.251 33.6161 284.126 34.0577 286.805 34.7825C289.483 35.5073 292.085 36.5057 294.83 36.7025C296.61 36.7939 298.395 36.6779 300.149 36.3569C303.144 35.8769 306.158 35.1665 308.789 33.6449C311.419 32.1233 313.627 29.6945 314.333 26.7473" stroke="white" stroke-width="0.48" stroke-linecap="round" stroke-linejoin="round"/>
<path d="M274.061 37.0144C273.618 36.9777 273.174 37.0794 272.792 37.3056C272.409 37.5317 272.106 37.8711 271.925 38.2768C271.57 39.0931 271.406 39.9796 271.445 40.8688C271.379 45.0605 271.781 49.2465 272.645 53.3488" stroke="white" stroke-width="0.48" stroke-linecap="round" stroke-linejoin="round"/>
<path d="M277.694 66.4912C277.694 66.4912 275.942 67.9984 274.723 67.9312C273.686 67.864 269.923 62.7136 268.843 61.2112C268.656 60.9439 268.512 60.6492 268.416 60.3376L267.403 56.9248C267.216 56.3059 267.24 55.6424 267.47 55.0384L268.022 53.5984C268.161 53.2297 268.372 52.8927 268.643 52.6073C268.914 52.322 269.24 52.0942 269.602 51.9376C270.144 51.7027 270.744 51.6362 271.324 51.7466C271.904 51.8571 272.438 52.1393 272.856 52.5568L275.602 55.2976" fill="white"/>
<path d="M277.694 66.4912C277.694 66.4912 275.942 67.9984 274.723 67.9312C273.686 67.864 269.923 62.7136 268.843 61.2112C268.656 60.9439 268.512 60.6492 268.416 60.3376L267.403 56.9248C267.216 56.3059 267.24 55.6424 267.47 55.0384L268.022 53.5984C268.161 53.2297 268.372 52.8927 268.643 52.6073C268.914 52.322 269.24 52.0942 269.602 51.9376C270.144 51.7027 270.744 51.6362 271.324 51.7466C271.904 51.8571 272.438 52.1393 272.856 52.5568L275.602 55.2976" stroke="#141518" stroke-width="0.48" stroke-linecap="round" stroke-linejoin="round"/>
<path d="M304.301 92.0944L303.058 86.9392C303.058 86.9392 295.406 91.6912 290.203 91.3024C285 90.9136 276.859 89.104 274.694 87.8032L274.061 93.5632C274.061 93.5632 280.781 98.9776 289.32 98.7568C297.859 98.536 304.301 92.0944 304.301 92.0944Z" stroke="#141518" stroke-width="0.48" stroke-linecap="round" stroke-linejoin="round"/>
<path d="M319.694 68.368C315.043 59.1088 307.262 53.5264 307.262 53.5264" stroke="#141518" stroke-width="0.48" stroke-linecap="round" stroke-linejoin="round"/>
<path d="M274.061 93.5392L256.421 98.2672C255.237 98.5831 254.078 98.9874 252.955 99.4768C248.683 101.339 237.754 106.134 236.986 106.797C236.854 106.92 236.749 107.069 236.676 107.234C236.604 107.399 236.565 107.577 236.563 107.757C236.492 109.922 236.141 112.069 235.522 114.146L221.122 158.968" stroke="#141518" stroke-width="0.48" stroke-linecap="round" stroke-linejoin="round"/>
<path d="M356.242 158.978C344.28 121.83 334.44 103.84 330.835 97.9312C329.939 96.4611 328.649 95.2721 327.11 94.4992L323.174 92.5264C322.008 91.9459 320.732 91.6188 319.43 91.5664L304.301 90.9376" stroke="#141518" stroke-width="0.48" stroke-linecap="round" stroke-linejoin="round"/>
<path d="M271.277 108.088C270.335 109.758 269.491 111.481 268.747 113.248" stroke="#141518" stroke-width="0.48" stroke-linecap="round" stroke-linejoin="round"/>
<path d="M278.933 96.4288C276.532 99.6289 274.302 102.954 272.251 106.389" stroke="#141518" stroke-width="0.48" stroke-linecap="round" stroke-linejoin="round"/>
<path d="M281.074 97.3073C281.074 97.3073 278.582 104.31 277.714 110.267" stroke="#141518" stroke-width="0.48" stroke-linecap="round" stroke-linejoin="round"/>
<path d="M305.448 104.838C306.085 106.08 306.618 107.372 307.041 108.702" stroke="#141518" stroke-width="0.48" stroke-linecap="round" stroke-linejoin="round"/>
<path d="M299.256 95.776C301.143 97.9433 302.832 100.276 304.301 102.746" stroke="#141518" stroke-width="0.48" stroke-linecap="round" stroke-linejoin="round"/>
<path d="M296.04 97.3073C296.04 97.3073 298.603 104.781 298.594 108.702" stroke="#141518" stroke-width="0.48" stroke-linecap="round" stroke-linejoin="round"/>
<path opacity="0.3" d="M348.946 158.982H221.16L229.958 131.574C229.958 131.574 235.978 112.571 236.371 110.272C236.765 107.973 237.01 106.797 237.01 106.797C237.01 106.797 251.971 99.4433 254.89 98.7377C257.808 98.0321 274.09 93.5441 274.09 93.5441L274.723 87.7841C274.723 87.7841 282.792 91.2353 289.526 91.2881C294.029 91.3265 298.584 89.3681 301.094 88.0481L301.517 91.9217C299.866 93.4433 295.79 96.9185 291.187 98.7137C291.576 98.6273 297.581 97.2257 301.747 93.9857V94.1777C301.747 94.1777 321.216 95.7521 324.091 98.0177C330.274 103.005 344.765 147.717 348.946 158.982Z" fill="black"/>
<path d="M367.234 165.03C365.189 163.317 363.35 162.208 362.112 159.717C359.846 155.152 359.088 149.848 358.546 144.837C357.058 131.008 354.754 140.632 354.754 140.632C354.86 143.786 354.7 146.942 354.274 150.069C353.482 156.237 351.797 162.069 345.782 164.949C345.629 165.015 345.499 165.124 345.406 165.263C345.313 165.402 345.262 165.564 345.259 165.731C345.259 167.171 350.266 168.309 356.443 168.309C362.621 168.309 367.627 167.157 367.627 165.731C367.619 165.592 367.579 165.457 367.51 165.336C367.442 165.215 367.348 165.11 367.234 165.03Z" fill="#8162FF" stroke="#141518" stroke-width="0.48" stroke-linecap="round" stroke-linejoin="round"/>
<path d="M369.677 140.891C367.277 151.869 358.157 159.194 349.277 157.254C346.302 156.584 343.624 154.967 341.645 152.646C337.718 148.149 335.971 141.126 337.555 133.888C339.955 122.915 349.075 115.59 357.95 117.525C361.79 118.365 364.987 120.822 367.142 124.245C369.96 128.661 371.03 134.699 369.677 140.891Z" stroke="#141518" stroke-width="0.48" stroke-linecap="round" stroke-linejoin="round"/>
<path d="M373.286 141.486C370.474 154.331 359.726 162.899 349.286 160.634C345.789 159.851 342.639 157.959 340.306 155.238C335.688 149.982 333.634 141.765 335.506 133.293C338.318 120.453 349.061 111.88 359.506 114.146C364.046 115.13 367.781 117.986 370.315 121.994C373.603 127.178 374.88 134.243 373.286 141.486Z" fill="#8162FF" stroke="#141518" stroke-width="0.48" stroke-linecap="round" stroke-linejoin="round"/>
<path opacity="0.5" d="M348.672 120.592C348.672 120.592 340.714 126.784 339.106 136C337.498 145.216 339.739 153.126 346.598 156.39C353.458 159.654 360.24 156.467 365.045 150.779C369.85 145.091 371.285 135.664 369.254 128.867C366.941 121.12 357.259 115.307 348.672 120.592Z" fill="white"/>
<path d="M369.677 140.891C367.277 151.869 358.157 159.194 349.277 157.254C346.302 156.584 343.624 154.967 341.645 152.646C338.842 148.216 337.757 142.182 339.11 135.986C341.51 125.013 350.63 117.688 359.51 119.622C362.486 120.294 365.164 121.913 367.142 124.235C369.96 128.661 371.03 134.699 369.677 140.891Z" stroke="#141518" stroke-width="0.48" stroke-linecap="round" stroke-linejoin="round"/>
<path d="M340.718 151.394C340.718 151.394 336.878 144.333 339.346 134.982C341.813 125.632 348.907 120.405 352.786 119.858C356.664 119.31 363.346 119.061 368.069 125.248C368.069 125.248 364.109 116.958 354.408 117.232C344.707 117.506 340.378 125.92 337.963 132.246C335.549 138.573 338.28 147.957 340.718 151.394Z" fill="#141518"/>
<path d="M346.598 135.184L353.458 128.325" stroke="#141518" stroke-width="0.48" stroke-linecap="round" stroke-linejoin="round"/>
<path d="M347.534 142.931L354.389 136.077" stroke="#141518" stroke-width="0.48" stroke-linecap="round" stroke-linejoin="round"/>
<path d="M347.534 137.738L360.374 124.893" stroke="#141518" stroke-width="0.48" stroke-linecap="round" stroke-linejoin="round"/>
<path d="M32.848 48.176C32.496 48.176 32.21 48.0953 31.99 47.934C31.7847 47.7727 31.66 47.56 31.616 47.296C31.572 47.0173 31.6233 46.7093 31.77 46.372L37.578 33.502C37.7687 33.0767 37.996 32.776 38.26 32.6C38.5387 32.4093 38.854 32.314 39.206 32.314C39.5433 32.314 39.844 32.4093 40.108 32.6C40.3867 32.776 40.6213 33.0767 40.812 33.502L46.642 46.372C46.8033 46.7093 46.862 47.0173 46.818 47.296C46.774 47.5747 46.6493 47.7947 46.444 47.956C46.2387 48.1027 45.9673 48.176 45.63 48.176C45.2193 48.176 44.8967 48.0807 44.662 47.89C44.442 47.6847 44.244 47.3767 44.068 46.966L42.638 43.644L43.826 44.414H34.542L35.73 43.644L34.322 46.966C34.1313 47.3913 33.9333 47.6993 33.728 47.89C33.5227 48.0807 33.2293 48.176 32.848 48.176ZM39.162 35.548L36.082 42.874L35.51 42.17H42.858L42.308 42.874L39.206 35.548H39.162ZM53.7097 52.18C52.9177 52.18 52.1477 52.1067 51.3997 51.96C50.6663 51.8133 49.999 51.586 49.3977 51.278C49.119 51.1313 48.9283 50.9553 48.8257 50.75C48.7377 50.5447 48.7083 50.332 48.7377 50.112C48.7817 49.9067 48.8697 49.7233 49.0017 49.562C49.1483 49.4007 49.3243 49.2907 49.5297 49.232C49.735 49.1733 49.9477 49.2027 50.1677 49.32C50.813 49.6427 51.4217 49.848 51.9937 49.936C52.5803 50.0387 53.079 50.09 53.4897 50.09C54.4723 50.09 55.2057 49.848 55.6897 49.364C56.1883 48.8947 56.4377 48.1907 56.4377 47.252V45.272H56.6357C56.4157 46.02 55.9537 46.6213 55.2497 47.076C54.5603 47.516 53.7757 47.736 52.8957 47.736C51.9277 47.736 51.0843 47.516 50.3657 47.076C49.647 46.6213 49.0897 45.9907 48.6937 45.184C48.2977 44.3773 48.0997 43.4387 48.0997 42.368C48.0997 41.5613 48.2097 40.8353 48.4297 40.19C48.6643 39.53 48.987 38.9653 49.3977 38.496C49.823 38.0267 50.329 37.6673 50.9157 37.418C51.517 37.154 52.177 37.022 52.8957 37.022C53.805 37.022 54.597 37.2493 55.2717 37.704C55.961 38.144 56.4083 38.7307 56.6137 39.464L56.3937 40.014V38.452C56.3937 37.9973 56.511 37.6527 56.7457 37.418C56.995 37.1833 57.3323 37.066 57.7577 37.066C58.1977 37.066 58.535 37.1833 58.7697 37.418C59.0043 37.6527 59.1217 37.9973 59.1217 38.452V46.922C59.1217 48.6673 58.6597 49.98 57.7357 50.86C56.8117 51.74 55.4697 52.18 53.7097 52.18ZM53.6437 45.646C54.2157 45.646 54.707 45.514 55.1177 45.25C55.5283 44.986 55.8437 44.612 56.0637 44.128C56.2983 43.6293 56.4157 43.0427 56.4157 42.368C56.4157 41.356 56.1663 40.564 55.6677 39.992C55.169 39.4053 54.4943 39.112 53.6437 39.112C53.0717 39.112 52.5803 39.244 52.1697 39.508C51.759 39.772 51.4363 40.146 51.2017 40.63C50.9817 41.114 50.8717 41.6933 50.8717 42.368C50.8717 43.38 51.121 44.1793 51.6197 44.766C52.1183 45.3527 52.793 45.646 53.6437 45.646ZM67.273 48.22C66.0557 48.22 65.007 47.9927 64.127 47.538C63.247 47.0833 62.565 46.438 62.081 45.602C61.6117 44.766 61.377 43.776 61.377 42.632C61.377 41.5173 61.6043 40.542 62.059 39.706C62.5283 38.87 63.1663 38.2173 63.973 37.748C64.7943 37.264 65.7257 37.022 66.767 37.022C67.5297 37.022 68.2117 37.1467 68.813 37.396C69.429 37.6453 69.9497 38.0047 70.375 38.474C70.815 38.9433 71.145 39.5153 71.365 40.19C71.5997 40.85 71.717 41.598 71.717 42.434C71.717 42.698 71.6217 42.9033 71.431 43.05C71.255 43.182 70.9983 43.248 70.661 43.248H63.599V41.664H69.781L69.429 41.994C69.429 41.3193 69.3263 40.7547 69.121 40.3C68.9303 39.8453 68.6443 39.5007 68.263 39.266C67.8963 39.0167 67.4343 38.892 66.877 38.892C66.261 38.892 65.733 39.0387 65.293 39.332C64.8677 39.6107 64.5377 40.014 64.303 40.542C64.083 41.0553 63.973 41.6713 63.973 42.39V42.544C63.973 43.7467 64.2517 44.6487 64.809 45.25C65.381 45.8367 66.217 46.13 67.317 46.13C67.6983 46.13 68.1237 46.086 68.593 45.998C69.077 45.8953 69.5317 45.7267 69.957 45.492C70.265 45.316 70.5363 45.2427 70.771 45.272C71.0057 45.2867 71.189 45.3673 71.321 45.514C71.4677 45.6607 71.5557 45.844 71.585 46.064C71.6143 46.2693 71.5703 46.482 71.453 46.702C71.3503 46.922 71.167 47.1127 70.903 47.274C70.3897 47.5967 69.7957 47.8387 69.121 48C68.461 48.1467 67.845 48.22 67.273 48.22ZM75.2588 48.176C74.8188 48.176 74.4815 48.0587 74.2468 47.824C74.0122 47.5747 73.8948 47.2227 73.8948 46.768V38.452C73.8948 37.9973 74.0122 37.6527 74.2468 37.418C74.4815 37.1833 74.8115 37.066 75.2368 37.066C75.6622 37.066 75.9922 37.1833 76.2268 37.418C76.4615 37.6527 76.5788 37.9973 76.5788 38.452V39.948L76.3368 39.398C76.6595 38.6207 77.1582 38.034 77.8328 37.638C78.5222 37.2273 79.2995 37.022 80.1648 37.022C81.0302 37.022 81.7415 37.1833 82.2988 37.506C82.8562 37.8287 83.2742 38.32 83.5528 38.98C83.8315 39.6253 83.9708 40.4467 83.9708 41.444V46.768C83.9708 47.2227 83.8535 47.5747 83.6188 47.824C83.3842 48.0587 83.0468 48.176 82.6068 48.176C82.1668 48.176 81.8222 48.0587 81.5728 47.824C81.3382 47.5747 81.2208 47.2227 81.2208 46.768V41.576C81.2208 40.74 81.0595 40.1313 80.7368 39.75C80.4288 39.3687 79.9448 39.178 79.2848 39.178C78.4782 39.178 77.8328 39.4347 77.3488 39.948C76.8795 40.4467 76.6448 41.114 76.6448 41.95V46.768C76.6448 47.7067 76.1828 48.176 75.2588 48.176ZM90.9 48.22C89.9613 48.22 89.1327 47.9927 88.414 47.538C87.71 47.0833 87.16 46.438 86.764 45.602C86.368 44.7513 86.17 43.754 86.17 42.61C86.17 41.4513 86.368 40.4613 86.764 39.64C87.16 38.804 87.71 38.1587 88.414 37.704C89.1327 37.2493 89.9613 37.022 90.9 37.022C91.7947 37.022 92.572 37.242 93.232 37.682C93.9067 38.122 94.3613 38.7013 94.596 39.42H94.354V33.7C94.354 33.2453 94.4713 32.9007 94.706 32.666C94.9407 32.4313 95.278 32.314 95.718 32.314C96.158 32.314 96.4953 32.4313 96.73 32.666C96.9793 32.9007 97.104 33.2453 97.104 33.7V46.768C97.104 47.2227 96.9867 47.5747 96.752 47.824C96.5173 48.0587 96.18 48.176 95.74 48.176C95.3 48.176 94.9627 48.0587 94.728 47.824C94.4933 47.5747 94.376 47.2227 94.376 46.768V45.052L94.618 45.712C94.398 46.4747 93.9507 47.0833 93.276 47.538C92.6013 47.9927 91.8093 48.22 90.9 48.22ZM91.67 46.13C92.2127 46.13 92.6893 45.998 93.1 45.734C93.5107 45.47 93.826 45.0813 94.046 44.568C94.2807 44.04 94.398 43.3873 94.398 42.61C94.398 41.4367 94.1487 40.564 93.65 39.992C93.1513 39.4053 92.4913 39.112 91.67 39.112C91.1273 39.112 90.6507 39.244 90.24 39.508C89.8293 39.7573 89.5067 40.146 89.272 40.674C89.052 41.1873 88.942 41.8327 88.942 42.61C88.942 43.7687 89.1913 44.6487 89.69 45.25C90.1887 45.8367 90.8487 46.13 91.67 46.13ZM105.257 48.22C104.04 48.22 102.991 47.9927 102.111 47.538C101.231 47.0833 100.549 46.438 100.065 45.602C99.5961 44.766 99.3614 43.776 99.3614 42.632C99.3614 41.5173 99.5887 40.542 100.043 39.706C100.513 38.87 101.151 38.2173 101.957 37.748C102.779 37.264 103.71 37.022 104.751 37.022C105.514 37.022 106.196 37.1467 106.797 37.396C107.413 37.6453 107.934 38.0047 108.359 38.474C108.799 38.9433 109.129 39.5153 109.349 40.19C109.584 40.85 109.701 41.598 109.701 42.434C109.701 42.698 109.606 42.9033 109.415 43.05C109.239 43.182 108.983 43.248 108.645 43.248H101.583V41.664H107.765L107.413 41.994C107.413 41.3193 107.311 40.7547 107.105 40.3C106.915 39.8453 106.629 39.5007 106.247 39.266C105.881 39.0167 105.419 38.892 104.861 38.892C104.245 38.892 103.717 39.0387 103.277 39.332C102.852 39.6107 102.522 40.014 102.287 40.542C102.067 41.0553 101.957 41.6713 101.957 42.39V42.544C101.957 43.7467 102.236 44.6487 102.793 45.25C103.365 45.8367 104.201 46.13 105.301 46.13C105.683 46.13 106.108 46.086 106.577 45.998C107.061 45.8953 107.516 45.7267 107.941 45.492C108.249 45.316 108.521 45.2427 108.755 45.272C108.99 45.2867 109.173 45.3673 109.305 45.514C109.452 45.6607 109.54 45.844 109.569 46.064C109.599 46.2693 109.555 46.482 109.437 46.702C109.335 46.922 109.151 47.1127 108.887 47.274C108.374 47.5967 107.78 47.8387 107.105 48C106.445 48.1467 105.829 48.22 105.257 48.22Z" fill="white"/>
<path d="M37.402 77.22C36.2727 77.22 35.29 76.9927 34.454 76.538C33.618 76.0687 32.9727 75.4087 32.518 74.558C32.0633 73.7073 31.836 72.71 31.836 71.566C31.836 70.7007 31.9607 69.9307 32.21 69.256C32.474 68.5667 32.848 67.9873 33.332 67.518C33.816 67.034 34.4027 66.6673 35.092 66.418C35.7813 66.154 36.5513 66.022 37.402 66.022C37.886 66.022 38.4067 66.088 38.964 66.22C39.536 66.352 40.0713 66.572 40.57 66.88C40.8047 67.0267 40.9587 67.2027 41.032 67.408C41.1053 67.6133 41.12 67.826 41.076 68.046C41.032 68.2513 40.9367 68.4347 40.79 68.596C40.658 68.7427 40.4893 68.838 40.284 68.882C40.0787 68.9113 39.8513 68.86 39.602 68.728C39.2793 68.5373 38.9493 68.398 38.612 68.31C38.2747 68.2073 37.952 68.156 37.644 68.156C37.16 68.156 36.7347 68.2367 36.368 68.398C36.0013 68.5447 35.686 68.7647 35.422 69.058C35.1727 69.3367 34.982 69.6887 34.85 70.114C34.718 70.5393 34.652 71.0307 34.652 71.588C34.652 72.6733 34.9087 73.5313 35.422 74.162C35.95 74.778 36.6907 75.086 37.644 75.086C37.952 75.086 38.2673 75.042 38.59 74.954C38.9273 74.866 39.2647 74.7267 39.602 74.536C39.8513 74.404 40.0713 74.36 40.262 74.404C40.4673 74.448 40.636 74.5507 40.768 74.712C40.9 74.8587 40.9807 75.042 41.01 75.262C41.0393 75.4673 41.01 75.6727 40.922 75.878C40.8487 76.0833 40.702 76.252 40.482 76.384C39.998 76.6773 39.4847 76.89 38.942 77.022C38.3993 77.154 37.886 77.22 37.402 77.22ZM47.4981 77.22C46.3834 77.22 45.4154 76.9927 44.5941 76.538C43.7728 76.0833 43.1348 75.438 42.6801 74.602C42.2254 73.7513 41.9981 72.754 41.9981 71.61C41.9981 70.7447 42.1228 69.9747 42.3721 69.3C42.6361 68.6107 43.0101 68.024 43.4941 67.54C43.9781 67.0413 44.5574 66.6673 45.2321 66.418C45.9068 66.154 46.6621 66.022 47.4981 66.022C48.6128 66.022 49.5808 66.2493 50.4021 66.704C51.2234 67.1587 51.8614 67.804 52.3161 68.64C52.7708 69.476 52.9981 70.466 52.9981 71.61C52.9981 72.4753 52.8661 73.2527 52.6021 73.942C52.3528 74.6313 51.9861 75.2253 51.5021 75.724C51.0181 76.208 50.4388 76.582 49.7641 76.846C49.0894 77.0953 48.3341 77.22 47.4981 77.22ZM47.4981 75.13C48.0408 75.13 48.5174 74.998 48.9281 74.734C49.3388 74.47 49.6541 74.0813 49.8741 73.568C50.1088 73.04 50.2261 72.3873 50.2261 71.61C50.2261 70.4367 49.9768 69.564 49.4781 68.992C48.9794 68.4053 48.3194 68.112 47.4981 68.112C46.9554 68.112 46.4788 68.244 46.0681 68.508C45.6574 68.7573 45.3348 69.146 45.1001 69.674C44.8801 70.1873 44.7701 70.8327 44.7701 71.61C44.7701 72.7687 45.0194 73.6487 45.5181 74.25C46.0168 74.8367 46.6768 75.13 47.4981 75.13ZM56.6759 77.176C56.2359 77.176 55.8986 77.0587 55.6639 76.824C55.4292 76.5747 55.3119 76.2227 55.3119 75.768V67.452C55.3119 66.9973 55.4292 66.6527 55.6639 66.418C55.8986 66.1833 56.2286 66.066 56.6539 66.066C57.0792 66.066 57.4092 66.1833 57.6439 66.418C57.8786 66.6527 57.9959 66.9973 57.9959 67.452V69.058L57.7539 68.398C58.0472 67.6647 58.5019 67.0853 59.1179 66.66C59.7339 66.2347 60.4672 66.022 61.3179 66.022C62.1832 66.022 62.8946 66.2273 63.4519 66.638C64.0092 67.0487 64.3979 67.6793 64.6179 68.53H64.3099C64.6032 67.7527 65.0872 67.144 65.7619 66.704C66.4366 66.2493 67.2139 66.022 68.0939 66.022C68.9152 66.022 69.5899 66.1833 70.1179 66.506C70.6606 66.8287 71.0639 67.32 71.3279 67.98C71.5919 68.6253 71.7239 69.4467 71.7239 70.444V75.768C71.7239 76.2227 71.5992 76.5747 71.3499 76.824C71.1152 77.0587 70.7779 77.176 70.3379 77.176C69.8979 77.176 69.5606 77.0587 69.3259 76.824C69.0912 76.5747 68.9739 76.2227 68.9739 75.768V70.554C68.9739 69.7327 68.8346 69.1313 68.5559 68.75C68.2919 68.3687 67.8372 68.178 67.1919 68.178C66.4732 68.178 65.9086 68.4347 65.4979 68.948C65.0872 69.4467 64.8819 70.1433 64.8819 71.038V75.768C64.8819 76.2227 64.7646 76.5747 64.5299 76.824C64.2952 77.0587 63.9579 77.176 63.5179 77.176C63.0779 77.176 62.7332 77.0587 62.4839 76.824C62.2492 76.5747 62.1319 76.2227 62.1319 75.768V70.554C62.1319 69.7327 61.9926 69.1313 61.7139 68.75C61.4499 68.3687 61.0026 68.178 60.3719 68.178C59.6532 68.178 59.0886 68.4347 58.6779 68.948C58.2672 69.4467 58.0619 70.1433 58.0619 71.038V75.768C58.0619 76.7067 57.5999 77.176 56.6759 77.176ZM85.4395 77.22C84.3248 77.22 83.3568 76.9927 82.5355 76.538C81.7142 76.0833 81.0762 75.438 80.6215 74.602C80.1668 73.7513 79.9395 72.754 79.9395 71.61C79.9395 70.7447 80.0642 69.9747 80.3135 69.3C80.5775 68.6107 80.9515 68.024 81.4355 67.54C81.9195 67.0413 82.4988 66.6673 83.1735 66.418C83.8482 66.154 84.6035 66.022 85.4395 66.022C86.5542 66.022 87.5222 66.2493 88.3435 66.704C89.1648 67.1587 89.8028 67.804 90.2575 68.64C90.7122 69.476 90.9395 70.466 90.9395 71.61C90.9395 72.4753 90.8075 73.2527 90.5435 73.942C90.2942 74.6313 89.9275 75.2253 89.4435 75.724C88.9595 76.208 88.3802 76.582 87.7055 76.846C87.0308 77.0953 86.2755 77.22 85.4395 77.22ZM85.4395 75.13C85.9822 75.13 86.4588 74.998 86.8695 74.734C87.2802 74.47 87.5955 74.0813 87.8155 73.568C88.0502 73.04 88.1675 72.3873 88.1675 71.61C88.1675 70.4367 87.9182 69.564 87.4195 68.992C86.9208 68.4053 86.2608 68.112 85.4395 68.112C84.8968 68.112 84.4202 68.244 84.0095 68.508C83.5988 68.7573 83.2762 69.146 83.0415 69.674C82.8215 70.1873 82.7115 70.8327 82.7115 71.61C82.7115 72.7687 82.9608 73.6487 83.4595 74.25C83.9582 74.8367 84.6182 75.13 85.4395 75.13ZM97.1473 77.22C96.5166 77.22 95.8493 77.154 95.1453 77.022C94.4413 76.89 93.8106 76.6627 93.2533 76.34C93.0186 76.1933 92.85 76.0247 92.7473 75.834C92.6593 75.6287 92.6226 75.4307 92.6373 75.24C92.6666 75.0347 92.74 74.8587 92.8573 74.712C92.9893 74.5653 93.1506 74.47 93.3413 74.426C93.5466 74.382 93.7666 74.4187 94.0013 74.536C94.588 74.8147 95.138 75.0127 95.6513 75.13C96.1646 75.2327 96.6706 75.284 97.1693 75.284C97.8733 75.284 98.394 75.1667 98.7313 74.932C99.0833 74.6827 99.2593 74.36 99.2593 73.964C99.2593 73.6267 99.142 73.37 98.9073 73.194C98.6873 73.0033 98.35 72.864 97.8953 72.776L95.6953 72.358C94.786 72.182 94.0893 71.852 93.6053 71.368C93.136 70.8693 92.9013 70.2313 92.9013 69.454C92.9013 68.75 93.092 68.1413 93.4733 67.628C93.8693 67.1147 94.412 66.7187 95.1013 66.44C95.7906 66.1613 96.5826 66.022 97.4773 66.022C98.1226 66.022 98.724 66.0953 99.2813 66.242C99.8533 66.374 100.403 66.5867 100.931 66.88C101.151 66.9973 101.298 67.1513 101.371 67.342C101.459 67.5327 101.481 67.7307 101.437 67.936C101.393 68.1267 101.305 68.3027 101.173 68.464C101.041 68.6107 100.873 68.706 100.667 68.75C100.477 68.7793 100.257 68.7353 100.007 68.618C99.5526 68.3833 99.1126 68.2147 98.6873 68.112C98.2766 68.0093 97.8806 67.958 97.4993 67.958C96.7806 67.958 96.2453 68.0827 95.8933 68.332C95.556 68.5813 95.3873 68.9113 95.3873 69.322C95.3873 69.63 95.49 69.8867 95.6953 70.092C95.9006 70.2973 96.216 70.4367 96.6413 70.51L98.8413 70.928C99.7946 71.104 100.513 71.4267 100.997 71.896C101.496 72.3653 101.745 72.996 101.745 73.788C101.745 74.8587 101.327 75.702 100.491 76.318C99.6553 76.9193 98.5406 77.22 97.1473 77.22ZM33.838 107.176C33.398 107.176 33.0607 107.059 32.826 106.824C32.5913 106.575 32.474 106.223 32.474 105.768V97.452C32.474 96.9973 32.5913 96.6527 32.826 96.418C33.0607 96.1833 33.3907 96.066 33.816 96.066C34.2413 96.066 34.5713 96.1833 34.806 96.418C35.0407 96.6527 35.158 96.9973 35.158 97.452V99.058L34.916 98.398C35.2093 97.6647 35.664 97.0853 36.28 96.66C36.896 96.2347 37.6293 96.022 38.48 96.022C39.3453 96.022 40.0567 96.2273 40.614 96.638C41.1713 97.0487 41.56 97.6793 41.78 98.53H41.472C41.7653 97.7527 42.2493 97.144 42.924 96.704C43.5987 96.2493 44.376 96.022 45.256 96.022C46.0773 96.022 46.752 96.1833 47.28 96.506C47.8227 96.8287 48.226 97.32 48.49 97.98C48.754 98.6253 48.886 99.4467 48.886 100.444V105.768C48.886 106.223 48.7613 106.575 48.512 106.824C48.2773 107.059 47.94 107.176 47.5 107.176C47.06 107.176 46.7227 107.059 46.488 106.824C46.2533 106.575 46.136 106.223 46.136 105.768V100.554C46.136 99.7327 45.9967 99.1313 45.718 98.75C45.454 98.3687 44.9993 98.178 44.354 98.178C43.6353 98.178 43.0707 98.4347 42.66 98.948C42.2493 99.4467 42.044 100.143 42.044 101.038V105.768C42.044 106.223 41.9267 106.575 41.692 106.824C41.4573 107.059 41.12 107.176 40.68 107.176C40.24 107.176 39.8953 107.059 39.646 106.824C39.4113 106.575 39.294 106.223 39.294 105.768V100.554C39.294 99.7327 39.1547 99.1313 38.876 98.75C38.612 98.3687 38.1647 98.178 37.534 98.178C36.8153 98.178 36.2507 98.4347 35.84 98.948C35.4293 99.4467 35.224 100.143 35.224 101.038V105.768C35.224 106.707 34.762 107.176 33.838 107.176ZM57.025 107.22C55.8076 107.22 54.759 106.993 53.879 106.538C52.999 106.083 52.317 105.438 51.833 104.602C51.3636 103.766 51.129 102.776 51.129 101.632C51.129 100.517 51.3563 99.542 51.811 98.706C52.2803 97.87 52.9183 97.2173 53.725 96.748C54.5463 96.264 55.4776 96.022 56.519 96.022C57.2816 96.022 57.9636 96.1467 58.565 96.396C59.181 96.6453 59.7016 97.0047 60.127 97.474C60.567 97.9433 60.897 98.5153 61.117 99.19C61.3516 99.85 61.469 100.598 61.469 101.434C61.469 101.698 61.3736 101.903 61.183 102.05C61.007 102.182 60.7503 102.248 60.413 102.248H53.351V100.664H59.533L59.181 100.994C59.181 100.319 59.0783 99.7547 58.873 99.3C58.6823 98.8453 58.3963 98.5007 58.015 98.266C57.6483 98.0167 57.1863 97.892 56.629 97.892C56.013 97.892 55.485 98.0387 55.045 98.332C54.6196 98.6107 54.2896 99.014 54.055 99.542C53.835 100.055 53.725 100.671 53.725 101.39V101.544C53.725 102.747 54.0036 103.649 54.561 104.25C55.133 104.837 55.969 105.13 57.069 105.13C57.4503 105.13 57.8756 105.086 58.345 104.998C58.829 104.895 59.2836 104.727 59.709 104.492C60.017 104.316 60.2883 104.243 60.523 104.272C60.7576 104.287 60.941 104.367 61.073 104.514C61.2196 104.661 61.3076 104.844 61.337 105.064C61.3663 105.269 61.3223 105.482 61.205 105.702C61.1023 105.922 60.919 106.113 60.655 106.274C60.1416 106.597 59.5476 106.839 58.873 107C58.213 107.147 57.597 107.22 57.025 107.22ZM67.3208 107.22C66.1035 107.22 65.1868 106.875 64.5708 106.186C63.9548 105.482 63.6468 104.455 63.6468 103.106V92.7C63.6468 92.2453 63.7641 91.9007 63.9988 91.666C64.2335 91.4313 64.5708 91.314 65.0108 91.314C65.4508 91.314 65.7881 91.4313 66.0228 91.666C66.2721 91.9007 66.3968 92.2453 66.3968 92.7V102.974C66.3968 103.649 66.5361 104.147 66.8148 104.47C67.1081 104.793 67.5188 104.954 68.0468 104.954C68.1641 104.954 68.2741 104.954 68.3768 104.954C68.4795 104.939 68.5821 104.925 68.6848 104.91C68.8901 104.881 69.0295 104.939 69.1028 105.086C69.1761 105.218 69.2128 105.497 69.2128 105.922C69.2128 106.289 69.1395 106.575 68.9928 106.78C68.8461 106.985 68.6041 107.11 68.2668 107.154C68.1201 107.169 67.9661 107.183 67.8048 107.198C67.6435 107.213 67.4821 107.22 67.3208 107.22ZM72.0362 107.176C71.5962 107.176 71.2589 107.059 71.0242 106.824C70.7895 106.575 70.6722 106.223 70.6722 105.768V92.7C70.6722 92.2453 70.7895 91.9007 71.0242 91.666C71.2589 91.4313 71.5962 91.314 72.0362 91.314C72.4762 91.314 72.8135 91.4313 73.0482 91.666C73.2975 91.9007 73.4222 92.2453 73.4222 92.7V98.398H73.1142C73.4369 97.6207 73.9355 97.034 74.6102 96.638C75.2995 96.2273 76.0769 96.022 76.9422 96.022C77.8075 96.022 78.5189 96.1833 79.0762 96.506C79.6335 96.8287 80.0515 97.32 80.3302 97.98C80.6089 98.6253 80.7482 99.4467 80.7482 100.444V105.768C80.7482 106.223 80.6309 106.575 80.3962 106.824C80.1615 107.059 79.8242 107.176 79.3842 107.176C78.9442 107.176 78.5995 107.059 78.3502 106.824C78.1155 106.575 77.9982 106.223 77.9982 105.768V100.576C77.9982 99.74 77.8369 99.1313 77.5142 98.75C77.2062 98.3687 76.7222 98.178 76.0622 98.178C75.2555 98.178 74.6102 98.4347 74.1262 98.948C73.6569 99.4467 73.4222 100.114 73.4222 100.95V105.768C73.4222 106.707 72.9602 107.176 72.0362 107.176ZM88.4473 107.22C87.3327 107.22 86.3647 106.993 85.5433 106.538C84.722 106.083 84.084 105.438 83.6293 104.602C83.1747 103.751 82.9473 102.754 82.9473 101.61C82.9473 100.745 83.072 99.9747 83.3213 99.3C83.5853 98.6107 83.9593 98.024 84.4433 97.54C84.9273 97.0413 85.5067 96.6673 86.1813 96.418C86.856 96.154 87.6113 96.022 88.4473 96.022C89.562 96.022 90.53 96.2493 91.3513 96.704C92.1727 97.1587 92.8107 97.804 93.2653 98.64C93.72 99.476 93.9473 100.466 93.9473 101.61C93.9473 102.475 93.8153 103.253 93.5513 103.942C93.302 104.631 92.9353 105.225 92.4513 105.724C91.9673 106.208 91.388 106.582 90.7133 106.846C90.0387 107.095 89.2833 107.22 88.4473 107.22ZM88.4473 105.13C88.99 105.13 89.4667 104.998 89.8773 104.734C90.288 104.47 90.6033 104.081 90.8233 103.568C91.058 103.04 91.1753 102.387 91.1753 101.61C91.1753 100.437 90.926 99.564 90.4273 98.992C89.9287 98.4053 89.2687 98.112 88.4473 98.112C87.9047 98.112 87.428 98.244 87.0173 98.508C86.6067 98.7573 86.284 99.146 86.0493 99.674C85.8293 100.187 85.7193 100.833 85.7193 101.61C85.7193 102.769 85.9687 103.649 86.4673 104.25C86.966 104.837 87.626 105.13 88.4473 105.13ZM97.6251 107.176C97.1704 107.176 96.8184 107.059 96.5691 106.824C96.3344 106.575 96.2171 106.223 96.2171 105.768V97.452C96.2171 96.9973 96.3344 96.6527 96.5691 96.418C96.8038 96.1833 97.1338 96.066 97.5591 96.066C97.9844 96.066 98.3144 96.1833 98.5491 96.418C98.7838 96.6527 98.9011 96.9973 98.9011 97.452V98.838H98.6811C98.8864 97.958 99.2898 97.2907 99.8911 96.836C100.492 96.3813 101.292 96.11 102.289 96.022C102.597 95.9927 102.839 96.0733 103.015 96.264C103.206 96.44 103.316 96.7187 103.345 97.1C103.374 97.4667 103.286 97.7673 103.081 98.002C102.89 98.222 102.597 98.354 102.201 98.398L101.717 98.442C100.822 98.53 100.148 98.8087 99.6931 99.278C99.2384 99.7327 99.0111 100.378 99.0111 101.214V105.768C99.0111 106.223 98.8938 106.575 98.6591 106.824C98.4244 107.059 98.0798 107.176 97.6251 107.176ZM109.962 107.22C108.745 107.22 107.696 106.993 106.816 106.538C105.936 106.083 105.254 105.438 104.77 104.602C104.301 103.766 104.066 102.776 104.066 101.632C104.066 100.517 104.294 99.542 104.748 98.706C105.218 97.87 105.856 97.2173 106.662 96.748C107.484 96.264 108.415 96.022 109.456 96.022C110.219 96.022 110.901 96.1467 111.502 96.396C112.118 96.6453 112.639 97.0047 113.064 97.474C113.504 97.9433 113.834 98.5153 114.054 99.19C114.289 99.85 114.406 100.598 114.406 101.434C114.406 101.698 114.311 101.903 114.12 102.05C113.944 102.182 113.688 102.248 113.35 102.248H106.288V100.664H112.47L112.118 100.994C112.118 100.319 112.016 99.7547 111.81 99.3C111.62 98.8453 111.334 98.5007 110.952 98.266C110.586 98.0167 110.124 97.892 109.566 97.892C108.95 97.892 108.422 98.0387 107.982 98.332C107.557 98.6107 107.227 99.014 106.992 99.542C106.772 100.055 106.662 100.671 106.662 101.39V101.544C106.662 102.747 106.941 103.649 107.498 104.25C108.07 104.837 108.906 105.13 110.006 105.13C110.388 105.13 110.813 105.086 111.282 104.998C111.766 104.895 112.221 104.727 112.646 104.492C112.954 104.316 113.226 104.243 113.46 104.272C113.695 104.287 113.878 104.367 114.01 104.514C114.157 104.661 114.245 104.844 114.274 105.064C114.304 105.269 114.26 105.482 114.142 105.702C114.04 105.922 113.856 106.113 113.592 106.274C113.079 106.597 112.485 106.839 111.81 107C111.15 107.147 110.534 107.22 109.962 107.22ZM120.522 107.22C119.892 107.22 119.224 107.154 118.52 107.022C117.816 106.89 117.186 106.663 116.628 106.34C116.394 106.193 116.225 106.025 116.122 105.834C116.034 105.629 115.998 105.431 116.012 105.24C116.042 105.035 116.115 104.859 116.232 104.712C116.364 104.565 116.526 104.47 116.716 104.426C116.922 104.382 117.142 104.419 117.376 104.536C117.963 104.815 118.513 105.013 119.026 105.13C119.54 105.233 120.046 105.284 120.544 105.284C121.248 105.284 121.769 105.167 122.106 104.932C122.458 104.683 122.634 104.36 122.634 103.964C122.634 103.627 122.517 103.37 122.282 103.194C122.062 103.003 121.725 102.864 121.27 102.776L119.07 102.358C118.161 102.182 117.464 101.852 116.98 101.368C116.511 100.869 116.276 100.231 116.276 99.454C116.276 98.75 116.467 98.1413 116.848 97.628C117.244 97.1147 117.787 96.7187 118.476 96.44C119.166 96.1613 119.958 96.022 120.852 96.022C121.498 96.022 122.099 96.0953 122.656 96.242C123.228 96.374 123.778 96.5867 124.306 96.88C124.526 96.9973 124.673 97.1513 124.746 97.342C124.834 97.5327 124.856 97.7307 124.812 97.936C124.768 98.1267 124.68 98.3027 124.548 98.464C124.416 98.6107 124.248 98.706 124.042 98.75C123.852 98.7793 123.632 98.7353 123.382 98.618C122.928 98.3833 122.488 98.2147 122.062 98.112C121.652 98.0093 121.256 97.958 120.874 97.958C120.156 97.958 119.62 98.0827 119.268 98.332C118.931 98.5813 118.762 98.9113 118.762 99.322C118.762 99.63 118.865 99.8867 119.07 100.092C119.276 100.297 119.591 100.437 120.016 100.51L122.216 100.928C123.17 101.104 123.888 101.427 124.372 101.896C124.871 102.365 125.12 102.996 125.12 103.788C125.12 104.859 124.702 105.702 123.866 106.318C123.03 106.919 121.916 107.22 120.522 107.22Z" fill="white"/>
</g>
<defs>
<clipPath id="clip0_1549_4038">
<rect width="350" height="150" rx="10" fill="white"/>
</clipPath>
</defs>
</svg>
