<svg width="130" height="22" viewBox="0 0 130 22" fill="none" xmlns="http://www.w3.org/2000/svg">
<path d="M25.3398 19.7763L25.3391 2.2286L30.1401 1.50384L32.9201 1.50402L32.9199 4.56908L28.4827 4.5688L28.4824 9.51154L32.9198 7.27516L32.9196 10.6992L28.4821 12.9632L28.4821 20.4002L25.3398 19.7763Z" fill="white"/>
<path d="M34.4911 4.12737C34.4912 2.44297 35.4284 1.50418 37.0269 1.50428L40.5271 1.5045C42.1256 1.50461 43.0902 2.44351 43.0901 4.12791L43.09 4.59734L39.9205 6.25392L39.9206 4.54191L37.633 4.54176L37.6327 9.37406L43.0899 6.55787L43.0892 18.0449C43.0891 19.7293 42.1244 20.6681 40.5259 20.668L37.0257 20.6678C35.4272 20.6677 34.4902 19.7288 34.4903 18.0444L34.4904 16.2495L37.6324 14.6206L37.6322 17.6304L39.9197 17.6305L39.9201 11.6109L34.4905 14.4547L34.4911 4.12737Z" fill="white"/>
<path d="M53.9093 1.50535L53.9083 17.6038L56.1958 17.6039L56.1968 1.5055L59.3663 1.5057L59.3653 17.9907C59.3651 19.8132 58.4832 20.6691 56.609 20.669L54.1561 20.6689C53.0261 20.6688 52.3647 20.006 52.3648 18.8187C52.3647 20.006 51.6757 20.6687 50.5457 20.6686L47.8999 20.6685C46.3013 20.6684 45.3643 19.7295 45.3644 18.0451L45.3655 1.50481L48.5074 1.50501L48.5064 17.6035L50.8215 17.6036L50.8225 1.50516L53.9093 1.50535Z" fill="white"/>
<path d="M72.6794 8.32698L72.6796 4.46115L70.1441 4.46099L70.1437 9.56941L72.6794 8.32698ZM75.7109 10.481L75.7105 18.0194C75.7103 19.8142 74.8008 20.6702 72.8991 20.6701L67.1114 20.6697L67.1126 1.50619L73.1484 1.50657C74.7469 1.50668 75.7114 2.44558 75.7113 4.12998L75.7111 8.1615C75.711 9.40409 75.3251 10.1496 74.3605 10.4809L75.7109 10.481ZM72.6788 17.6878L72.6792 11.5301L70.1435 12.8001L70.1432 17.6877L72.6788 17.6878Z" fill="white"/>
<path d="M86.5838 20.6709L83.4419 20.6707L83.4424 12.5525L81.1273 13.7397L81.1268 20.6706L77.9849 20.6704L77.986 4.13013C77.9861 2.44573 78.9232 1.50694 80.5217 1.50704L84.0219 1.50726C85.6204 1.50737 86.585 2.44627 86.5849 4.13067L86.5838 20.6709ZM83.4426 9.18367L83.4429 4.54467L81.1278 4.54452L81.1275 10.3157L83.4426 9.18367Z" fill="white"/>
<path d="M94.37 9.23959L94.3703 4.54536L92.0552 4.54522L92.0548 10.3992L94.37 9.23959ZM97.5118 11.007L95.1966 12.1943L98.779 20.6717L95.4993 20.6715L92.5232 13.5747L92.0546 13.8232L92.0542 20.6713L88.9123 20.6711L88.9135 1.50757L94.9493 1.50796C96.5478 1.50806 97.5124 2.44697 97.5122 4.13137L97.5118 11.007Z" fill="white"/>
<path d="M105.327 8.32906L105.327 4.46322L102.792 4.46306L102.791 9.57149L105.327 8.32906ZM108.358 10.4831L108.358 18.0215C108.358 19.8163 107.448 20.6723 105.547 20.6721L99.7589 20.6718L99.7601 1.50826L105.796 1.50865C107.394 1.50875 108.359 2.44765 108.359 4.13205L108.359 8.16357C108.359 9.40616 107.973 10.1517 107.008 10.483L108.358 10.4831ZM105.326 17.6899L105.327 11.5322L102.791 12.8022L102.791 17.6897L105.326 17.6899Z" fill="white"/>
<path d="M118.212 20.6729L110.632 20.6725L110.634 1.50895L118.213 1.50943L118.213 4.57449L113.775 4.57421L113.775 9.51696L118.212 7.28058L118.212 10.7046L113.775 12.9686L113.775 17.6076L118.212 17.6079L118.212 20.6729Z" fill="white"/>
<path d="M125.591 9.24157L125.591 4.54734L123.276 4.5472L123.276 10.4012L125.591 9.24157ZM128.733 11.009L126.418 12.1962L130 20.6737L126.72 20.6735L123.744 13.5767L123.276 13.8252L123.275 20.6733L120.133 20.6731L120.135 1.50956L126.17 1.50994C127.769 1.51004 128.733 2.44895 128.733 4.13335L128.733 11.009Z" fill="white"/>
<path d="M25.3398 19.7763L25.3391 2.2286L30.1401 1.50384L32.9201 1.50402L32.9199 4.56908L28.4827 4.5688L28.4824 9.51154L32.9198 7.27516L32.9196 10.6992L28.4821 12.9632L28.4821 20.4002L25.3398 19.7763Z" fill="#8162FF"/>
<path d="M34.4911 4.12737C34.4912 2.44297 35.4284 1.50418 37.0269 1.50428L40.5271 1.5045C42.1256 1.50461 43.0902 2.44351 43.0901 4.12791L43.09 4.59734L39.9205 6.25392L39.9206 4.54191L37.633 4.54176L37.6327 9.37406L43.0899 6.55787L43.0892 18.0449C43.0891 19.7293 42.1244 20.6681 40.5259 20.668L37.0257 20.6678C35.4272 20.6677 34.4902 19.7288 34.4903 18.0444L34.4904 16.2495L37.6324 14.6206L37.6322 17.6304L39.9197 17.6305L39.9201 11.6109L34.4905 14.4547L34.4911 4.12737Z" fill="#8162FF"/>
<path d="M53.9093 1.50535L53.9083 17.6038L56.1958 17.6039L56.1968 1.5055L59.3663 1.5057L59.3653 17.9907C59.3651 19.8132 58.4832 20.6691 56.609 20.669L54.1561 20.6689C53.0261 20.6688 52.3647 20.006 52.3648 18.8187C52.3647 20.006 51.6757 20.6687 50.5457 20.6686L47.8999 20.6685C46.3013 20.6684 45.3643 19.7295 45.3644 18.0451L45.3655 1.50481L48.5074 1.50501L48.5064 17.6035L50.8215 17.6036L50.8225 1.50516L53.9093 1.50535Z" fill="#8162FF"/>
<path fill-rule="evenodd" clip-rule="evenodd" d="M1.8165 4.93827C1.81644 5.76685 2.1459 6.56151 2.73238 7.14743C3.31886 7.73336 4.11432 8.06256 4.94379 8.06261C5.77325 8.06267 6.56876 7.73357 7.15531 7.14771C7.74187 6.56186 8.07142 5.76725 8.07147 4.93867C8.07153 4.1101 7.74207 3.31544 7.15559 2.72951C6.56911 2.14359 5.77364 1.81439 4.94418 1.81433C4.11472 1.81428 3.31921 2.14338 2.73266 2.72923C2.1461 3.31508 1.81655 4.1097 1.8165 4.93827ZM4.94367 9.87663C3.88525 9.87644 2.85484 9.53692 2.00403 8.90802C1.15322 8.27912 0.526938 7.39404 0.217326 6.383C-0.0922855 5.37196 -0.0688788 4.28835 0.284103 3.2916C0.637084 2.29484 1.301 1.43758 2.17818 0.845918C3.05535 0.25426 4.09947 -0.0405458 5.15691 0.00487441C6.21435 0.0502947 7.22928 0.433543 8.05237 1.09823C8.87547 1.76292 9.46327 2.67396 9.7293 3.6973C9.99532 4.72064 9.92553 5.80226 9.53018 6.78301L11.4752 8.08117C11.4609 8.12661 11.4475 8.1723 11.4348 8.21822L11.124 9.32677L10.4117 9.8024L8.40619 8.46393C7.5143 9.33662 6.29152 9.87672 4.94367 9.87663ZM1.81573 17.062C1.81578 16.2334 2.14533 15.4388 2.73189 14.8529C3.31844 14.2671 4.11395 13.938 4.94341 13.938C5.77287 13.9381 6.56834 14.2673 7.15482 14.8532C7.7413 15.4391 8.07076 16.2338 8.0707 17.0624C8.07065 17.8909 7.7411 18.6855 7.15454 19.2714C6.56799 19.8572 5.77248 20.1863 4.94302 20.1863C4.11356 20.1862 3.31809 19.857 2.73161 19.2711C2.14513 18.6852 1.81567 17.8905 1.81573 17.062ZM4.94353 12.124C3.88604 12.124 2.85644 12.4628 2.00595 13.0906C1.15546 13.7184 0.528912 14.6021 0.218332 15.6118C-0.0922474 16.6216 -0.0704886 17.7043 0.280412 18.7008C0.631314 19.6973 1.29286 20.5551 2.16789 21.1483C3.04292 21.7414 4.0853 22.0387 5.14194 21.9963C6.19858 21.954 7.21378 21.5743 8.03842 20.913C8.86307 20.2517 9.45369 19.3437 9.72355 18.3223C9.99341 17.3009 9.92827 16.22 9.53771 15.2384L30.1659 1.50056L28.247 1.6586C25.541 1.94286 22.9205 2.7709 20.5431 4.09292L14.3384 7.53916C14.1054 7.66917 13.9005 7.84406 13.7356 8.05372C13.5708 8.26337 13.4492 8.50361 13.3779 8.76054L12.8673 10.5866L8.42201 13.5553C7.49765 12.6374 6.24689 12.1227 4.94353 12.124ZM14.3137 14.4727L14.338 14.4868L20.5423 17.9339C22.9195 19.2562 25.5399 20.0846 28.2458 20.3692L27.9687 19.0071L25.3466 17.362L17.6754 12.2256L14.3137 14.4727Z" fill="#8162FF"/>
</svg>
