<svg width="140" height="35" viewBox="0 0 140 35" fill="none" xmlns="http://www.w3.org/2000/svg">
<g filter="url(#filter0_d_46004_10819)">
<path fill-rule="evenodd" clip-rule="evenodd" d="M5.81619 9.93827C5.81614 10.7668 6.14559 11.5615 6.73207 12.1474C7.31855 12.7334 8.11402 13.0626 8.94348 13.0626C9.77294 13.0627 10.5685 12.7336 11.155 12.1477C11.7416 11.5619 12.0711 10.7672 12.0712 9.93867C12.0712 9.1101 11.7418 8.31544 11.1553 7.72951C10.5688 7.14359 9.77334 6.81439 8.94388 6.81433C8.11442 6.81428 7.31891 7.14338 6.73235 7.72923C6.1458 8.31508 5.81624 9.1097 5.81619 9.93827ZM8.94337 14.8766C7.88495 14.8764 6.85454 14.5369 6.00373 13.908C5.15292 13.2791 4.52663 12.394 4.21702 11.383C3.90741 10.372 3.93082 9.28835 4.2838 8.2916C4.63678 7.29484 5.3007 6.43758 6.17787 5.84592C7.05505 5.25426 8.09916 4.95945 9.1566 5.00487C10.214 5.05029 11.229 5.43354 12.0521 6.09823C12.8752 6.76292 13.463 7.67396 13.729 8.6973C13.995 9.72064 13.9252 10.8023 13.5299 11.783L15.4749 13.0812C15.4606 13.1266 15.4472 13.1723 15.4345 13.2182L15.1237 14.3268L14.4114 14.8024L12.4059 13.4639C11.514 14.3366 10.2912 14.8767 8.94337 14.8766ZM5.81542 22.062C5.81547 21.2334 6.14503 20.4388 6.73158 19.8529C7.31814 19.2671 8.11365 18.938 8.94311 18.938C9.77257 18.9381 10.568 19.2673 11.1545 19.8532C11.741 20.4391 12.0705 21.2338 12.0704 22.0624C12.0703 22.8909 11.7408 23.6855 11.1542 24.2714C10.5677 24.8572 9.77217 25.1863 8.94271 25.1863C8.11325 25.1862 7.31778 24.857 6.7313 24.2711C6.14482 23.6852 5.81537 22.8905 5.81542 22.062ZM8.94322 17.124C7.88574 17.124 6.85613 17.4628 6.00564 18.0906C5.15515 18.7184 4.52861 19.6021 4.21803 20.6118C3.90745 21.6216 3.92921 22.7043 4.28011 23.7008C4.63101 24.6973 5.29256 25.5551 6.16758 26.1483C7.04261 26.7414 8.085 27.0387 9.14163 26.9963C10.1983 26.954 11.2135 26.5743 12.0381 25.913C12.8628 25.2517 13.4534 24.3437 13.7232 23.3223C13.9931 22.3009 13.928 21.22 13.5374 20.2384L34.1656 6.50056L32.2467 6.6586C29.5407 6.94286 26.9202 7.7709 24.5428 9.09292L18.3381 12.5392C18.1051 12.6692 17.9002 12.8441 17.7353 13.0537C17.5704 13.2634 17.4488 13.5036 17.3776 13.7605L16.867 15.5866L12.4217 18.5553C11.4973 17.6374 10.2466 17.1227 8.94322 17.124ZM18.3134 19.4727L18.3376 19.4868L24.542 22.9339C26.9192 24.2562 29.5396 25.0846 32.2455 25.3692L31.9684 24.0071L29.3463 22.362L21.6751 17.2256L18.3134 19.4727Z" fill="#8162FF"/>
</g>
<path d="M29.1309 5.68601H33.6283C35.1919 5.68601 36.3323 6.05389 37.0497 6.78967C37.7671 7.50704 38.1257 8.6199 38.1257 10.1282V11.3147C38.1257 13.3196 37.4636 14.5888 36.1392 15.1223V15.1775C36.8749 15.3982 37.39 15.8488 37.6843 16.5294C37.997 17.21 38.1533 18.1205 38.1533 19.261V22.6547C38.1533 23.2066 38.1717 23.6572 38.2085 24.0067C38.2453 24.3378 38.3373 24.6689 38.4844 25H35.3942C35.2838 24.6873 35.2103 24.393 35.1735 24.1171C35.1367 23.8412 35.1183 23.3445 35.1183 22.6271V19.0954C35.1183 18.2125 34.9711 17.5963 34.6768 17.2468C34.4009 16.8973 33.9135 16.7226 33.2145 16.7226H32.166V25H29.1309V5.68601ZM33.2697 13.9634C33.8767 13.9634 34.3273 13.8071 34.6216 13.4944C34.9343 13.1817 35.0907 12.6574 35.0907 11.9217V10.4317C35.0907 9.73275 34.9619 9.22691 34.7044 8.9142C34.4653 8.6015 34.079 8.44515 33.5456 8.44515H32.166V13.9634H33.2697ZM42.6044 5.68601H46.7155L49.8609 25H46.8259L46.2741 21.1648V21.22H42.8251L42.2733 25H39.459L42.6044 5.68601ZM45.9154 18.5988L44.5634 9.05216H44.5082L43.1838 18.5988H45.9154ZM51.3334 5.68601H59.3625V8.44515H54.3685V13.8255H58.2864V16.5846H54.3685V25H51.3334V5.68601ZM62.2741 5.68601H66.3852L69.5306 25H66.4955L65.9437 21.1648V21.22H62.4948L61.943 25H59.1286L62.2741 5.68601ZM65.585 18.5988L64.233 9.05216H64.1779L62.8535 18.5988H65.585Z" fill="#8162FF"/>
<path d="M75.422 5.68601H80.0022C81.5657 5.68601 82.7061 6.05389 83.4235 6.78967C84.1409 7.50704 84.4996 8.6199 84.4996 10.1282V10.9008C84.4996 11.8941 84.334 12.7034 84.0029 13.3288C83.6902 13.9542 83.2028 14.4049 82.5406 14.6808V14.736C84.0489 15.251 84.8031 16.5938 84.8031 18.7643V20.4198C84.8031 21.9098 84.4076 23.0502 83.6167 23.8412C82.8441 24.6137 81.7037 25 80.1953 25H75.422V5.68601ZM79.6435 13.5496C80.2505 13.5496 80.7012 13.3932 80.9955 13.0805C81.3082 12.7678 81.4645 12.2436 81.4645 11.5078V10.4317C81.4645 9.73275 81.3358 9.22691 81.0782 8.9142C80.8391 8.6015 80.4528 8.44515 79.9194 8.44515H78.4571V13.5496H79.6435ZM80.1953 22.2409C80.7288 22.2409 81.1242 22.1029 81.3818 21.827C81.6393 21.5327 81.768 21.036 81.768 20.3371V18.654C81.768 17.771 81.6117 17.164 81.299 16.8329C81.0047 16.4834 80.508 16.3087 79.809 16.3087H78.4571V22.2409H80.1953ZM88.9224 5.68601H93.0335L96.1789 25H93.1439L92.5921 21.1648V21.22H89.1431L88.5913 25H85.777L88.9224 5.68601ZM92.2334 18.5988L90.8814 9.05216H90.8262L89.5018 18.5988H92.2334ZM97.6514 5.68601H102.149C103.712 5.68601 104.853 6.05389 105.57 6.78967C106.288 7.50704 106.646 8.6199 106.646 10.1282V11.3147C106.646 13.3196 105.984 14.5888 104.66 15.1223V15.1775C105.395 15.3982 105.91 15.8488 106.205 16.5294C106.517 17.21 106.674 18.1205 106.674 19.261V22.6547C106.674 23.2066 106.692 23.6572 106.729 24.0067C106.766 24.3378 106.858 24.6689 107.005 25H103.915C103.804 24.6873 103.731 24.393 103.694 24.1171C103.657 23.8412 103.639 23.3445 103.639 22.6271V19.0954C103.639 18.2125 103.492 17.5963 103.197 17.2468C102.921 16.8973 102.434 16.7226 101.735 16.7226H100.686V25H97.6514V5.68601ZM101.79 13.9634C102.397 13.9634 102.848 13.8071 103.142 13.4944C103.455 13.1817 103.611 12.6574 103.611 11.9217V10.4317C103.611 9.73275 103.482 9.22691 103.225 8.9142C102.986 8.6015 102.599 8.44515 102.066 8.44515H100.686V13.9634H101.79ZM108.78 5.68601H113.36C114.923 5.68601 116.064 6.05389 116.781 6.78967C117.498 7.50704 117.857 8.6199 117.857 10.1282V10.9008C117.857 11.8941 117.692 12.7034 117.361 13.3288C117.048 13.9542 116.56 14.4049 115.898 14.6808V14.736C117.407 15.251 118.161 16.5938 118.161 18.7643V20.4198C118.161 21.9098 117.765 23.0502 116.974 23.8412C116.202 24.6137 115.061 25 113.553 25H108.78V5.68601ZM113.001 13.5496C113.608 13.5496 114.059 13.3932 114.353 13.0805C114.666 12.7678 114.822 12.2436 114.822 11.5078V10.4317C114.822 9.73275 114.693 9.22691 114.436 8.9142C114.197 8.6015 113.81 8.44515 113.277 8.44515H111.815V13.5496H113.001ZM113.553 22.2409C114.086 22.2409 114.482 22.1029 114.739 21.827C114.997 21.5327 115.126 21.036 115.126 20.3371V18.654C115.126 17.771 114.969 17.164 114.657 16.8329C114.362 16.4834 113.866 16.3087 113.167 16.3087H111.815V22.2409H113.553ZM119.935 5.68601H128.212V8.44515H122.97V13.5496H127.136V16.3087H122.97V22.2409H128.212V25H119.935V5.68601ZM129.958 5.68601H134.456C136.019 5.68601 137.16 6.05389 137.877 6.78967C138.594 7.50704 138.953 8.6199 138.953 10.1282V11.3147C138.953 13.3196 138.291 14.5888 136.966 15.1223V15.1775C137.702 15.3982 138.217 15.8488 138.512 16.5294C138.824 17.21 138.981 18.1205 138.981 19.261V22.6547C138.981 23.2066 138.999 23.6572 139.036 24.0067C139.073 24.3378 139.165 24.6689 139.312 25H136.221C136.111 24.6873 136.037 24.393 136.001 24.1171C135.964 23.8412 135.946 23.3445 135.946 22.6271V19.0954C135.946 18.2125 135.798 17.5963 135.504 17.2468C135.228 16.8973 134.741 16.7226 134.042 16.7226H132.993V25H129.958V5.68601ZM134.097 13.9634C134.704 13.9634 135.155 13.8071 135.449 13.4944C135.762 13.1817 135.918 12.6574 135.918 11.9217V10.4317C135.918 9.73275 135.789 9.22691 135.532 8.9142C135.293 8.6015 134.906 8.44515 134.373 8.44515H132.993V13.9634H134.097Z" fill="white"/>
<defs>
<filter id="filter0_d_46004_10819" x="0" y="5.00037" width="38.1656" height="30" filterUnits="userSpaceOnUse" color-interpolation-filters="sRGB">
<feFlood flood-opacity="0" result="BackgroundImageFix"/>
<feColorMatrix in="SourceAlpha" type="matrix" values="0 0 0 0 0 0 0 0 0 0 0 0 0 0 0 0 0 0 127 0" result="hardAlpha"/>
<feOffset dy="4"/>
<feGaussianBlur stdDeviation="2"/>
<feComposite in2="hardAlpha" operator="out"/>
<feColorMatrix type="matrix" values="0 0 0 0 0 0 0 0 0 0 0 0 0 0 0 0 0 0 0.25 0"/>
<feBlend mode="normal" in2="BackgroundImageFix" result="effect1_dropShadow_46004_10819"/>
<feBlend mode="normal" in="SourceGraphic" in2="effect1_dropShadow_46004_10819" result="shape"/>
</filter>
</defs>
</svg>
